<?xml version="1.0" encoding="utf-8"?>
<!-- Generator: Adobe Illustrator 16.0.0, SVG Export Plug-In . SVG Version: 6.00 Build 0)  -->
<!DOCTYPE svg PUBLIC "-//W3C//DTD SVG 1.1//EN" "http://www.w3.org/Graphics/SVG/1.1/DTD/svg11.dtd">
<svg version="1.1" xmlns="http://www.w3.org/2000/svg" xmlns:xlink="http://www.w3.org/1999/xlink" x="0px" y="0px" width="400px"
	 height="400px" viewBox="0 0 400 400" enable-background="new 0 0 400 400" xml:space="preserve">
<g id="Layer_1" display="none">
	<g id="Layer_2" display="inline">
		<rect x="82.637" y="79.748" fill="none" width="240.125" height="240.127"/>
	</g>
	<g id="Layer_1_1_">
		<g display="inline">
			<path d="M199.962,311.023c-39.534,0-79.066,0.024-118.6-0.017c-13.06-0.014-22.905-7.448-25.873-19.536
				c-0.592-2.414-0.683-4.996-0.685-7.503c-0.036-55.825,0.178-111.653-0.161-167.478c-0.094-15.665,11.683-27.681,27.918-27.637
				c78.434,0.213,156.869,0.09,235.302,0.101c16.468,0.002,27.335,10.842,27.335,27.213c0.005,55.953-0.216,111.907,0.155,167.856
				c0.093,13.883-10.802,27.276-27.176,27.121C278.777,310.77,239.367,311.023,199.962,311.023z M148.145,154.523
				c31.005,29.128,61.953,58.204,93.014,87.383c14.817-12.059,29.376-23.906,44.024-35.826c14.084,11.49,27.908,22.77,42.252,34.47
				c0.107-1.418,0.192-2.005,0.192-2.591c0.005-40.926,0.026-81.852-0.019-122.777c-0.007-6.549-3.292-9.695-9.884-9.697
				c-78.819-0.014-157.64-0.013-236.458-0.002c-6.947,0.002-9.984,2.95-9.991,9.878c-0.038,35.495-0.021,70.989-0.006,106.482
				c0,1.005,0.21,2.009,0.382,3.548C97.412,201.525,122.609,178.181,148.145,154.523z M272.639,293.463
				c-41.988-39.441-83.167-78.121-124.315-116.776c-0.609,0.394-0.956,0.554-1.222,0.8c-24.658,22.79-49.331,45.562-73.891,68.455
				c-1.171,1.093-1.841,3.266-1.868,4.947c-0.168,10.348-0.09,20.701-0.083,31.053c0.007,9.039,2.463,11.521,11.394,11.521
				c61.729,0.001,123.458,0,185.185,0C269.075,293.463,270.313,293.463,272.639,293.463z M253.586,253.014
				c0.268,0.569,0.313,0.846,0.477,0.998c13.504,12.713,26.994,25.439,40.572,38.072c0.889,0.827,2.438,1.294,3.691,1.318
				c6.559,0.129,13.121,0.104,19.682,0.046c6.298-0.056,9.517-3.238,9.604-9.587c0.092-6.687,0.171-13.381-0.086-20.057
				c-0.063-1.592-1.108-3.568-2.344-4.617c-6.146-5.227-12.506-10.207-18.794-15.267c-7.057-5.677-14.117-11.346-21.226-17.057
				C274.502,235.693,264.114,244.296,253.586,253.014z"/>
			<path d="M242.844,123.695c18.272,0.021,33.417,15.266,33.336,33.56c-0.082,18.198-15.348,33.155-33.789,33.109
				c-18.354-0.046-32.965-14.804-32.976-33.304C209.406,138.632,224.393,123.675,242.844,123.695z M242.811,173.825
				c9.707-0.019,17.623-7.964,17.512-17.582c-0.106-9.401-8.047-17.319-17.456-17.407c-9.621-0.092-17.532,7.823-17.537,17.544
				C225.324,166.259,232.923,173.844,242.811,173.825z"/>
		</g>
	</g>
	<g id="Layer_3">
		<g display="inline">
			<path d="M199.841,344.452c-28.633,0.468-56.682-3.466-83.71-13.099c-9.708-3.461-18.906-8.326-28.466-12.231
				c-6.688-2.731-9.006-7.995-9.783-14.544c-1.473-12.413-1.733-24.813,0.557-37.153c3.062-16.493,11.597-28.423,28.404-33.098
				c16.738-4.657,32.175-12.093,46.715-21.485c2.895-1.869,5.847-2.677,9.047-1.152c5.854,2.787,6.336,10.715,0.577,14.238
				c-7.936,4.854-15.95,9.695-24.36,13.627c-8.309,3.887-16.981,7.232-25.803,9.726c-10.63,3.004-16.432,9.673-18.413,20.135
				c-2.05,10.826-2.006,21.708-0.642,32.621c0.215,1.726,0.984,2.571,2.447,3.331c16.564,8.59,34.158,14.207,52.32,18.16
				c20.642,4.494,41.572,5.951,62.623,5.025c30.563-1.342,59.947-7.854,87.826-20.799c4.825-2.242,7.335-4.824,7.473-10.555
				c0.244-10.389,0.682-20.729-2.066-30.857c-2.286-8.428-7.479-14.05-16.164-16.43c-18.382-5.04-35.391-13.153-51.281-23.63
				c-5.384-3.55-5.863-10.107-1.109-13.714c2.957-2.243,6.303-1.946,10.253,0.213c9.642,5.275,19.206,10.758,29.176,15.344
				c7.302,3.357,15.281,5.211,22.812,8.116c10.705,4.133,17.512,12.135,21.055,22.894c4.572,13.885,4.465,28.164,3.11,42.506
				c-0.212,2.244-0.578,4.474-0.938,6.7c-0.707,4.358-2.934,7.458-6.937,9.646c-13.604,7.436-27.915,13.066-42.786,17.309
				c-18.065,5.153-36.492,8.283-55.271,9.12C210.96,344.661,205.396,344.452,199.841,344.452z"/>
			<path d="M263.105,129.331c-0.754,13.688-2.133,27.13-6.627,40.089c-4.853,13.985-12.477,25.934-25.398,33.854
				c-10.548,6.461-22.18,8.685-34.368,8.125c-15.383-0.705-28.864-5.969-39.392-17.568c-8.49-9.354-13.521-20.534-16.314-32.731
				c-4.779-20.867-5.45-41.851,0.063-62.633c6.328-23.852,25.008-39.481,49.513-42.425c13.001-1.563,25.523,0,37.479,5.455
				c17.637,8.047,27.722,22.222,31.689,40.711C261.654,111.079,262.036,120.278,263.105,129.331z M246.453,127.279
				c-0.566-5.077-0.878-13.128-2.467-20.919c-3.027-14.846-11.141-26.009-25.846-31.363c-8.621-3.139-17.56-4.019-26.679-2.621
				c-17.608,2.7-29.587,12.295-34.419,29.53c-5.375,19.175-4.48,38.544,0.29,57.75c2.133,8.588,5.859,16.484,11.87,23.111
				c8.68,9.57,19.882,12.694,32.365,12.382c16.815-0.421,28.939-8.18,36.387-23.272
				C244.448,158.719,245.837,144.551,246.453,127.279z"/>
		</g>
	</g>
	<g id="Layer_4">
		<g display="inline">
			<path d="M116.253,74.208c0-2.361-0.141-4.36,0.024-6.334c0.762-9.141,6.407-14.319,15.557-14.324
				c24.98-0.01,49.961-0.003,74.941-0.003c20.404,0,40.81-0.004,61.213,0.002c9.966,0.003,15.742,5.712,15.933,15.73
				c0.028,1.513,0.004,3.027,0.004,4.926c6.188,0,12.165-0.114,18.136,0.05c2.826,0.076,5.757,0.294,8.435,1.116
				c10.828,3.324,16.664,13.667,14.465,24.854c-6.547,33.333-24.493,58.553-53.671,75.885c-1.186,0.704-2.204,2.07-2.783,3.361
				c-6.045,13.479-13.469,26.041-23.896,36.655c-6.059,6.169-12.813,11.392-20.717,14.988c-1.611,0.733-2.164,1.63-2.178,3.426
				c-0.111,14.289,8.071,25.797,21.629,30.215c6.631,2.163,7.613,3.511,7.613,10.463c0,8.2,0,16.399,0,24.601
				c0,1.021,0,2.041,0,3.748c5.333,0,10.374-0.28,15.37,0.063c8.659,0.597,16.687,8.789,17.216,17.479
				c0.354,5.795,0.404,11.619,0.34,17.427c-0.06,5.46-2.744,7.912-8.24,7.913c-50.15,0.009-100.304,0.009-150.457,0
				c-5.679-0.001-8.209-2.452-8.239-8.155c-0.03-5.526-0.059-11.063,0.21-16.58c0.449-9.166,8.426-17.457,17.552-18.1
				c4.898-0.347,9.84-0.062,15.063-0.062c0-4.865,0-9.035,0-13.203c0-5.244-0.001-10.488,0-15.733
				c0.003-6.003,1.177-7.767,6.892-9.532c8.321-2.572,14.639-7.548,18.789-15.211c2.691-4.971,3.9-10.313,3.441-15.95
				c-0.065-0.795-0.897-1.868-1.65-2.219c-17.242-8.032-28.922-21.709-38.233-37.723c-2.718-4.677-4.816-9.713-7.382-14.485
				c-0.756-1.406-1.931-2.829-3.278-3.639c-29.184-17.546-47.005-43.014-53.376-76.444c-2.536-13.306,7.509-24.932,21.642-25.188
				C102.988,74.111,109.364,74.208,116.253,74.208z M200.173,67.194c-22.401,0-44.802,0.006-67.202-0.011
				c-1.696-0.001-3.168-0.19-3.133,2.366c0.27,19.707-0.664,39.444,2.047,59.08c2.877,20.839,8.629,40.731,19.218,59.007
				c6.907,11.921,15.432,22.501,27.67,29.421c14.167,8.012,28.481,8.008,42.64-0.033c12.135-6.891,20.631-17.369,27.497-29.2
				c13.475-23.216,19.43-48.653,20.861-75.172c0.762-14.071,0.306-28.206,0.531-42.31c0.041-2.512-0.684-3.215-3.213-3.204
				C244.786,67.236,222.48,67.194,200.173,67.194z M270.253,332.668c0-2.201,0.004-4.271,0-6.34
				c-0.013-7.154-2.272-9.459-9.325-9.46c-40.304-0.005-80.607-0.007-120.911,0.014c-1.417,0.001-2.851,0.138-4.249,0.378
				c-2.497,0.43-4.434,2.077-4.719,4.387c-0.446,3.604-0.119,7.305-0.119,11.021C177.356,332.668,223.626,332.668,270.253,332.668z
				 M237.076,303.033c0-8.215,0-16.066,0-23.852c-24.65,0-49.082,0-73.436,0c0,8.092,0,15.957,0,23.852
				C188.214,303.033,212.584,303.033,237.076,303.033z M115.776,87.855c-6.333,0-12.79-0.069-19.245,0.021
				c-5.838,0.08-9.04,4.148-7.961,9.898c3.249,17.309,10.524,32.715,22.133,45.961c3.689,4.21,7.916,7.95,11.937,11.944
				c-1.798-11.521-3.998-22.531-5.119-33.651C116.388,110.796,116.323,99.456,115.776,87.855z M283.881,87.88
				c0.354,22.912-1.039,45.366-7.246,68.037c9.725-7.673,17.037-16.266,22.914-26.049c6.028-10.035,10.002-20.897,12.049-32.432
				c0.933-5.258-2.037-9.332-7.199-9.502C297.747,87.713,291.081,87.88,283.881,87.88z M181.636,265.113c12.689,0,24.906,0,37.665,0
				c-7.326-8.551-10.99-18.118-11.381-28.674c-5.171,0-10.074,0-15.176,0C192.486,247.309,188.571,256.6,181.636,265.113z"/>
			<path d="M171.915,164.872c0.922-5.503,1.906-11.892,3.115-18.239c0.317-1.667-0.159-2.626-1.281-3.697
				c-4.135-3.946-8.166-7.999-12.292-11.955c-2.309-2.215-3.563-4.73-2.499-7.925c1.072-3.213,3.672-4.391,6.792-4.816
				c5.651-0.771,11.317-1.474,16.931-2.462c1.145-0.201,2.492-1.313,3.057-2.372c2.643-4.948,5.098-9.997,7.51-15.063
				c1.418-2.981,3.446-5.146,6.897-5.114c3.311,0.032,5.307,2.125,6.684,5.003c2.463,5.146,4.953,10.284,7.616,15.327
				c0.523,0.992,1.804,2.025,2.875,2.211c5.619,0.97,11.281,1.701,16.936,2.454c3.118,0.417,5.756,1.526,6.874,4.715
				c1.16,3.302-0.181,5.874-2.573,8.157c-4.136,3.945-8.248,7.918-12.221,12.025c-0.756,0.781-1.271,2.298-1.119,3.368
				c0.771,5.455,1.799,10.874,2.736,16.304c0.98,5.698-1.064,9.445-5.71,9.858c-1.581,0.14-3.384-0.424-4.853-1.143
				c-4.951-2.427-9.867-4.943-14.649-7.685c-2.031-1.165-3.547-1.009-5.492,0.078c-4.98,2.782-10.03,5.449-15.146,7.97
				C176.956,174.408,171.829,171.255,171.915,164.872z M212.346,153.474c-0.541-3.419-0.857-6.238-1.451-8.999
				c-0.715-3.333,0.234-5.97,2.752-8.167c2.099-1.832,4.156-3.71,6.231-5.568c-0.188-0.265-0.378-0.53-0.569-0.795
				c-2.884-0.452-5.757-1.003-8.654-1.328c-3.174-0.357-5.188-2.056-6.506-4.856c-1.23-2.611-2.573-5.168-4.104-8.218
				c-1.618,3.249-2.977,5.943-4.303,8.654c-1.219,2.488-3.103,3.983-5.913,4.354c-3.061,0.404-6.103,0.953-9.771,1.537
				c2.632,2.558,4.797,4.675,6.977,6.776c1.999,1.924,2.794,4.188,2.281,6.972c-0.554,3.003-0.94,6.038-1.484,9.615
				c3.12-1.635,5.656-2.906,8.134-4.28c2.73-1.512,5.384-1.556,8.126-0.028C206.573,150.521,209.117,151.786,212.346,153.474z"/>
		</g>
	</g>
	<g id="Layer_5">
		<path display="inline" d="M200.085,236.18c0,1.348,0,2.363,0,3.381c0,16.584-0.053,33.168,0.021,49.75
			c0.035,7.89-3.053,14.002-10.184,17.459c-7.253,3.516-14.118,2.111-20.242-2.979c-9.779-8.13-19.501-16.327-29.282-24.453
			c-25.285-21.009-50.591-41.992-75.876-63c-1.302-1.082-2.567-2.226-3.729-3.455c-7.446-7.879-7.559-18.02,0.056-25.73
			c3.825-3.873,8.165-7.249,12.366-10.738c30.289-25.156,60.604-50.282,90.904-75.424c2.103-1.744,4.093-3.627,6.243-5.308
			c6.119-4.783,12.88-5.825,19.83-2.323c6.842,3.447,9.93,9.398,9.908,17.065c-0.05,16.678-0.015,33.355-0.015,50.032
			c0,1.017,0,2.033,0,3.375c1.319,0,2.419,0,3.517,0c40.61,0,81.221-0.001,121.829,0.001c11.919,0.001,19.384,7.458,19.389,19.36
			c0.004,11.59,0.019,23.179-0.005,34.768c-0.021,10.327-7.905,18.208-18.261,18.211c-40.893,0.017-81.784,0.009-122.677,0.009
			C202.752,236.18,201.63,236.18,200.085,236.18z"/>
	</g>
	<g id="Layer_6">
		<g display="inline">
			<path d="M100.624,85.495c0-7.277-0.041-14.083,0.015-20.887c0.035-4.239,1.967-7.091,5.252-8.047
				c5.024-1.463,9.517,2.014,9.612,7.598c0.103,6.008,0.023,12.02,0.039,18.03c0.003,0.991,0.084,1.982,0.137,3.136
				c56.273,0,112.34,0,168.792,0c0-5.925,0-11.7,0-17.475c0.002-1.324-0.047-2.651,0.016-3.972c0.213-4.493,3.363-7.699,7.49-7.673
				c4.002,0.025,7.195,3.07,7.332,7.466c0.188,6.004,0.07,12.019,0.08,18.028c0.002,1.103,0,2.207,0,3.798c1.424,0,2.598,0,3.772,0
				c10.595,0,21.188-0.017,31.782,0.007c6.667,0.016,9.302,2.638,9.302,9.181c0.003,80.067,0.003,160.133,0,240.2
				c0,6.291-2.601,8.909-8.849,8.909c-90.254,0.002-180.506,0.002-270.759,0c-6.258,0-8.884-2.627-8.884-8.873
				c-0.001-80.169-0.001-160.337,0-240.505c0-6.15,2.727-8.894,8.956-8.912c10.594-0.029,21.188-0.009,31.783-0.009
				C97.698,85.495,98.905,85.495,100.624,85.495z M70.542,328.934c86.454,0,172.669,0,258.814,0c0-62.596,0-124.974,0-187.308
				c-86.388,0-172.531,0-258.814,0C70.542,204.093,70.542,266.4,70.542,328.934z M70.538,126.62c86.501,0,172.644,0,258.871,0
				c0-8.772,0-17.37,0-25.975c-86.403,0-172.616,0-258.871,0C70.538,109.405,70.538,117.924,70.538,126.62z"/>
			<path d="M162.212,264.076c-15.303,0-30.135,0-45.355,0c0,1.226,0,2.307,0,3.387c0,11.104,0.01,22.205-0.003,33.309
				c-0.007,5.078-2.845,8.207-7.372,8.189c-4.491-0.018-7.265-3.163-7.27-8.289c-0.01-11.002-0.003-22.003-0.003-33.003
				c0-1.108,0-2.217,0-3.735c-3.332,0-6.46,0.006-9.587-0.002c-2.852-0.007-5.709,0.082-8.554-0.066
				c-4.226-0.221-7.062-3.21-7.091-7.26c-0.029-4.103,3.004-7.323,7.294-7.439c4.784-0.131,9.574-0.035,14.361-0.037
				c1.091-0.001,2.183,0,3.424,0c0-12.499,0-24.688,0-37.365c-2.242,0-4.533,0-6.823,0c-3.566,0-7.131,0.031-10.695-0.01
				c-4.499-0.052-7.615-3.131-7.567-7.406c0.047-4.156,3.101-7.169,7.445-7.219c4.889-0.055,9.779-0.013,14.668-0.014
				c0.994,0,1.987,0,3.273,0c0-2.635,0-4.952,0-7.269c0-8.455-0.005-16.91,0.004-25.363c0.007-6.32,2.685-9.76,7.542-9.718
				c4.817,0.041,7.396,3.47,7.399,9.869c0.004,9.473-0.003,18.946-0.006,28.419c0,1.212,0,2.426,0,3.85c15.107,0,30.024,0,45.354,0
				c0-1.091,0-2.172,0-3.252c0.001-10.186-0.015-20.372,0.012-30.558c0.014-5.173,2.772-8.291,7.261-8.322
				c4.581-0.033,7.421,3.198,7.428,8.505c0.013,10.084,0.003,20.169,0.003,30.253c0,1.093,0,2.187,0,3.431
				c15.13,0,29.966,0,45.291,0c0-1.028,0-2.094,0-3.16c0-10.492-0.026-20.984,0.021-31.475c0.017-3.909,2.431-6.821,5.931-7.418
				c3.725-0.635,7.166,1.194,8.301,4.621c0.402,1.218,0.43,2.599,0.435,3.906c0.034,9.982,0.021,19.965,0.021,29.947
				c0,1.104,0,2.207,0,3.521c15.252,0,30.278,0,45.793,0c0-0.963,0-2.03,0-3.097c0-10.289-0.01-20.577,0.004-30.864
				c0.009-5.06,2.894-8.219,7.408-8.17c4.398,0.047,7.225,3.158,7.23,8.044c0.018,11.294,0.005,22.586,0.005,34.301
				c3.59,0,7.011-0.001,10.433,0c3.156,0.001,6.316-0.073,9.473,0.024c4.046,0.125,7.01,3.307,6.988,7.338
				c-0.021,4.035-2.989,7.199-7.07,7.258c-6.493,0.088-12.99,0.021-19.651,0.021c0,12.529,0,24.79,0,37.371
				c6.207,0,12.29-0.048,18.369,0.018c4.154,0.045,7.313,2.733,7.722,6.375c0.516,4.604-2.442,8.197-7.176,8.347
				c-5.292,0.165-10.593,0.056-15.889,0.065c-1.104,0.002-2.211,0-3.627,0c-0.059,1.31-0.148,2.383-0.148,3.453
				c-0.011,11.104,0.006,22.207-0.014,33.31c-0.008,5.146-2.781,8.26-7.289,8.268c-4.501,0.007-7.363-3.151-7.369-8.204
				c-0.016-12.115-0.005-24.23-0.005-36.589c-15.08,0-29.985,0-45.19,0c-0.052,1.106-0.144,2.185-0.145,3.265
				c-0.012,11.103,0.018,22.205-0.016,33.31c-0.015,4.688-2.814,7.978-6.856,8.21c-4.705,0.271-7.904-2.8-7.97-7.947
				c-0.101-7.841-0.034-15.685-0.037-23.529c-0.002-4.366,0-8.734,0-13.324c-15.065,0-29.873,0-45.013,0
				c-0.063,1.23-0.172,2.408-0.173,3.585c-0.01,10.899,0.027,21.799-0.011,32.698c-0.017,4.914-2.561,8.129-6.548,8.506
				c-4.873,0.457-8.327-2.889-8.347-8.232c-0.041-11-0.016-22-0.018-33C162.212,266.598,162.212,265.486,162.212,264.076z
				 M162.408,248.989c0-12.343,0-24.66,0-37.044c-15.046,0-29.942,0-44.91,0c0,12.425,0,24.666,0,37.044
				C132.521,248.989,147.342,248.989,162.408,248.989z M177.458,248.92c15.194,0,30.084,0,44.987,0c0-12.458,0-24.705,0-36.958
				c-15.096,0-29.991,0-44.987,0C177.458,224.337,177.458,236.514,177.458,248.92z M237.564,211.873c0,12.548,0,24.793,0,37.044
				c15.115,0,30.014,0,44.918,0c0-12.452,0-24.692,0-37.044C267.439,211.873,252.619,211.873,237.564,211.873z"/>
		</g>
	</g>
	<g id="Layer_7">
		<g display="inline">
			<path fill="#3E80C3" d="M175.251,181.176c0-6.733-0.095-13.581,0.017-20.424c0.417-25.797,20.083-50.262,45.187-55.856
				c15.461-3.446,29.166,1.118,41.341,10.613c11.731,9.149,19.949,20.83,22.345,35.712c1.105,6.869,0.621,13.997,0.817,21.009
				c0.063,2.253,0.146,4.522-0.051,6.76c-0.181,2.088,0.817,2.734,2.606,3.37c20.522,7.287,33.811,21.431,39.338,42.513
				c1.26,4.802,1.667,9.914,1.812,14.902c0.274,9.531,0.106,19.076,0.075,28.617c-0.102,30.104-20.784,54.625-50.478,59.758
				c-2.886,0.5-5.862,0.666-8.798,0.673c-26.275,0.05-52.554,0.077-78.832,0.016c-29.384-0.069-54.781-22.131-58.488-51.346
				c-1.106-8.72-0.716-17.647-0.74-26.479c-0.02-6.838-0.358-13.798,0.729-20.494c3.844-23.666,17.426-39.586,39.855-47.991
				c0.89-0.333,1.795-0.63,2.688-0.958C174.827,181.514,174.951,181.386,175.251,181.176z M201.573,179.188
				c19.237,0,37.934,0,56.651,0c0-8.111,0.305-16.078-0.138-24.002c-0.2-3.6-1.334-7.4-2.995-10.62
				c-5.164-10.018-14.063-14.146-24.972-14.404c-12.345-0.292-22.138,6.563-26.308,18.162
				C200.201,158.367,202.316,168.75,201.573,179.188z M243.027,254.172c0.011,0,0.021,0,0.031,0c0-3.898,0.063-7.801-0.014-11.697
				c-0.138-6.984-5.648-12.478-12.579-12.629c-7.245-0.162-13.335,5.163-13.524,12.254c-0.215,7.967-0.188,15.948-0.008,23.916
				c0.159,7.084,6.154,12.449,13.414,12.375c6.897-0.07,12.491-5.545,12.664-12.52C243.107,261.975,243.027,258.072,243.027,254.172
				z"/>
			<path fill="#788CA0" d="M182.116,110.489c-1.445-1.983-2.559-3.751-3.905-5.32c-6.537-7.621-15.057-8.85-24.173-6.72
				c-9.118,2.129-14.575,8.54-16.086,17.476c-1.243,7.349-1.062,14.939-1.531,22.751c10.636,0,20.571,0,30.706,0
				c0,8.905,0,17.515,0,26.439c-1.28,0-2.389-0.006-3.498,0c-13.784,0.089-27.577-0.09-41.35,0.352
				c-12.835,0.412-23.275,10.167-23.984,22.97c-0.684,12.344-0.862,24.803,0.011,37.122c0.96,13.553,11.44,22.543,25.028,23.152
				c0.857,0.039,1.713,0.105,2.965,0.188c0,4.357,0,8.653,0,12.951c0,4.327,0,8.654,0,13.266c-4.569,0.377-8.914-0.355-13.06-1.717
				c-22.329-7.328-36.331-22.351-41.347-45.446c-0.511-2.351-0.643-4.823-0.636-7.239c0.032-10.574-0.373-21.19,0.418-31.712
				c1.138-15.127,8.853-27.088,20.11-36.894c4.939-4.302,10.475-7.703,16.64-9.937c1.683-0.609,1.953-1.506,1.995-3.055
				c0.21-7.701-0.095-15.482,0.925-23.082c2.953-22,23.131-41.864,45.139-44.599c11.391-1.416,21.75,2.166,31.238,8.326
				c6.996,4.542,12.835,10.269,17.276,17.869C197.369,101.917,189.807,106.166,182.116,110.489z"/>
		</g>
	</g>
	<g id="Layer_8">
		<path display="inline" d="M199.957,245.807c2.041-2.457,3.107-3.974,4.398-5.266c38.435-38.48,76.904-76.925,115.319-115.423
			c4.354-4.361,9.088-7.119,15.502-5.652c10.809,2.471,15.284,15.199,8.321,23.813c-0.955,1.183-2.092,2.224-3.172,3.304
			c-42.555,42.572-85.11,85.142-127.669,127.708c-8.802,8.805-16.529,8.854-25.236,0.146
			c-42.777-42.779-85.518-85.597-128.363-128.308c-4.746-4.731-7.11-9.958-5.277-16.472c2.815-10.006,15.012-13.84,23.302-7.454
			c1.443,1.112,2.699,2.476,3.994,3.771c38.241,38.242,76.48,76.485,114.696,114.751
			C197.05,242.006,198.088,243.521,199.957,245.807z"/>
	</g>
	<g id="Layer_9">
		<g display="inline">
			<path d="M40.02,199.993c0.003-88.317,71.734-160.007,160.065-159.973c88.306,0.034,159.96,71.8,159.894,160.143
				c-0.064,88.295-71.865,159.914-160.221,159.815C111.602,359.883,40.017,288.188,40.02,199.993z M199.918,342.564
				c78.591,0.053,142.436-63.573,142.646-142.157c0.213-78.83-63.705-142.967-142.482-142.973
				c-78.757-0.006-142.683,63.84-142.648,142.471C57.469,278.697,121.207,342.516,199.918,342.564z"/>
			<path d="M269.177,233.744c4.817,3.121,9.511,6.16,14.61,9.464c-20.314,28.826-47.611,44.817-82.665,45.294
				c-36.088,0.489-63.847-16.045-84.963-45.252c5.106-3.313,9.793-6.352,14.684-9.523c16.884,23.803,39.58,37.393,68.952,37.394
				C229.152,271.119,252.057,257.896,269.177,233.744z"/>
			<path d="M130.501,164.193c0.075-9.511,7.875-17.28,17.304-17.237c9.593,0.043,17.276,7.939,17.186,17.661
				c-0.088,9.452-8.14,17.335-17.453,17.086C137.96,181.448,130.426,173.704,130.501,164.193z"/>
			<path d="M272.014,164.712c-0.258,9.546-8.307,17.338-17.547,16.988c-9.9-0.375-17.232-8.264-16.939-18.226
				c0.271-9.18,8.518-16.864,17.711-16.503C264.807,147.347,272.271,155.239,272.014,164.712z"/>
		</g>
	</g>
	<g id="Layer_10">
		<g display="inline">
			<path d="M109.493,343.385c60.489,0,120.582,0,181.184,0c0-1.4,0-2.813,0-4.225c0-70.616-0.002-141.234,0.003-211.851
				c0-5.878,3.135-9.351,8.303-9.265c4.351,0.074,7.672,3.265,7.902,7.622c0.047,0.899,0.016,1.804,0.016,2.707
				c0,73.663,0,147.326-0.001,220.988c0,7.705-2.665,10.402-10.278,10.402c-64.413,0.002-128.826,0.002-193.238,0.002
				c-7.348,0-10.312-2.908-10.313-10.162c-0.005-73.889-0.005-147.775-0.004-221.664c0-5.231,2.241-8.772,6.128-9.731
				c5.611-1.384,10.235,2.517,10.269,8.858c0.068,12.972,0.03,25.945,0.03,38.917c0.001,57.758,0.001,115.515,0.001,173.272
				C109.493,340.582,109.493,341.906,109.493,343.385z"/>
			<path d="M155.974,80.866c0-3.676,0-7.03,0-10.384c0-7.332-0.06-14.664,0.023-21.996c0.054-4.775,3.365-8.205,8.033-8.214
				c23.913-0.051,47.828-0.05,71.742-0.004c4.883,0.009,8.139,3.401,8.17,8.403c0.063,9.362,0.022,18.725,0.024,28.086
				c0,1.222,0,2.443,0,4.108c1.545,0,2.854,0,4.163,0c24.703,0.001,49.403-0.011,74.108,0.014c4.331,0.005,7.612,2.648,8.293,6.487
				c0.72,4.087-1.294,7.812-5.144,9.192c-1.129,0.405-2.415,0.51-3.628,0.51c-81.215,0.024-162.432,0.025-243.646,0.014
				c-5.267-0.001-8.82-3.356-8.788-8.164c0.033-4.765,3.617-8.042,8.913-8.045c24.59-0.015,49.181-0.006,73.771-0.007
				C153.219,80.866,154.429,80.866,155.974,80.866z M172.351,80.663c18.556,0,36.833,0,55.142,0c0-8.131,0-16.055,0-23.919
				c-18.501,0-36.775,0-55.142,0C172.351,64.768,172.351,72.521,172.351,80.663z"/>
			<path d="M208.109,227.243c-0.002,27.185,0.011,54.368-0.012,81.552c-0.004,4.407-2.021,7.188-5.899,8.42
				c-3.265,1.037-7.081-0.098-8.814-3.193c-0.982-1.756-1.473-4.022-1.477-6.062c-0.082-44.215-0.063-88.433-0.063-132.65
				c0-9.249-0.002-18.498,0.001-27.747c0.002-6.977,2.708-10.519,8.062-10.563c5.536-0.045,8.204,3.449,8.204,10.721
				C208.109,174.228,208.109,200.734,208.109,227.243z"/>
			<path d="M130.905,227.061c0-27.18-0.008-54.36,0.008-81.542c0.002-4.4,2.534-7.693,6.328-8.411
				c4.093-0.775,7.848,1.171,9.306,4.96c0.392,1.019,0.556,2.184,0.557,3.282c0.027,54.586,0.032,109.171,0.01,163.759
				c-0.002,4.844-3.699,8.604-8.183,8.537c-4.508-0.065-8.011-3.795-8.015-8.709C130.894,281.646,130.905,254.354,130.905,227.061z"
				/>
			<path d="M268.963,227.188c-0.001,27.07,0.014,54.144-0.013,81.215c-0.007,6.721-5.476,10.928-11.175,8.59
				c-3.639-1.494-5.153-4.387-5.139-8.309c0.055-14.213,0.006-28.427,0.008-42.639c0.002-39.816,0.006-79.636,0.018-119.453
				c0.002-5.511,2.369-8.89,6.615-9.516c5.313-0.785,9.59,2.766,9.658,8.218c0.092,7.443,0.027,14.89,0.028,22.335
				C268.965,187.481,268.965,207.334,268.963,227.188z"/>
		</g>
	</g>
	<g id="Layer_11">
		<g display="inline">
			<path d="M141.808,185.156c0-1.606,0-2.827,0-4.049c0.007-25.325,0.026-50.649,0.016-75.974
				c-0.006-17.175,4.865-32.714,16.062-45.873c24.871-29.228,66.896-26.209,88.07,6.227c7.438,11.395,11.229,23.946,11.245,37.574
				c0.033,25.666,0.011,51.332,0.011,76.997c0,1.349,0,2.697,0,4.559c1.412,0,2.603-0.009,3.79,0.002
				c13.623,0.122,27.275-0.286,40.864,0.484c27.829,1.576,52.107,22.852,57.482,50.27c4.142,21.119,0.253,41.456-8.928,60.545
				c-17.554,36.507-46.817,57.725-86.79,64.068c-4.57,0.727-9.273,0.834-13.917,0.843c-33.047,0.065-66.094,0.062-99.141,0.028
				c-54.037-0.055-100.809-39.469-109.899-92.684c-2.803-16.404-2.757-32.642,5.401-47.76c12.19-22.587,31.343-34.344,56.961-35.179
				c11.685-0.381,23.392-0.075,35.09-0.079C139.229,185.155,140.334,185.156,141.808,185.156z M199.939,201.27
				c-32.363,0-64.726-0.065-97.088,0.025c-20.026,0.059-37.663,12.49-44.553,31.1c-4.217,11.39-3.563,23.035-1.234,34.574
				c9.263,45.902,48.085,77.542,94.865,77.559c32.022,0.015,64.045,0.031,96.067-0.029c4.304-0.01,8.667-0.104,12.902-0.788
				c38.5-6.222,64.889-27.489,78.359-64.165c4.617-12.568,6.768-25.773,4.312-39.137c-4.247-23.102-23.67-39.055-47.224-39.118
				C264.211,201.203,232.075,201.268,199.939,201.27z M240.705,184.496c0.079-0.817,0.161-1.258,0.161-1.698
				c0.001-26.802,0.149-53.606-0.085-80.407c-0.094-10.647-3.34-20.541-9.547-29.32c-13.377-18.919-36.633-23.149-54.159-9.512
				c-12.979,10.1-18.615,24-18.708,40.166c-0.147,25.78-0.04,51.562-0.032,77.341c0.001,1.1,0.092,2.201,0.146,3.431
				C185.995,184.496,213.216,184.496,240.705,184.496z"/>
			<path d="M191.81,278.75c0-3.973-0.057-7.943,0.016-11.914c0.086-4.727,3.607-8.18,8.189-8.162
				c4.572,0.02,8.068,3.484,8.105,8.243c0.063,8.17,0.073,16.339-0.004,24.509c-0.046,4.737-3.587,8.141-8.205,8.131
				c-4.639-0.01-8.016-3.388-8.088-8.213C191.76,287.146,191.81,282.948,191.81,278.75z"/>
		</g>
	</g>
	<g id="Layer_12">
		<g display="inline">
			<path d="M114.125,131.326c-0.031-42.625,30.568-78.587,71.503-85.033c46.794-7.368,90.414,24.38,97.632,71.323
				c2.877,18.703-0.596,36.706-7.642,54.068c-8.577,21.137-21.127,39.358-39.856,52.839c-10.105,7.271-21.283,11.896-33.853,12.608
				c-9.907,0.562-19.282-1.647-28.161-5.944c-16.945-8.199-29.401-21.293-39.447-36.848c-10.621-16.442-17.329-34.381-19.648-53.872
				C114.255,137.115,114.255,133.714,114.125,131.326z M268.396,131.411c-0.416-4.266-0.595-7.981-1.168-11.634
				c-6.58-41.836-48.228-67.813-88.673-55.363c-32.155,9.899-52.474,41.729-47.906,75.373c3.657,26.933,15.238,49.925,35.68,67.96
				c20.388,17.987,43.959,18.411,64.569,0.737C254.548,188.207,266.191,161.75,268.396,131.411z"/>
			<path d="M199.595,354.761c-26.095,0-52.189,0.007-78.283-0.003c-37.769-0.014-69.727-27.466-75.034-64.9
				c-3.724-26.264,4.58-48.576,23.504-67.017c3.39-3.303,8.302-3.196,11.396,0.091c3.18,3.377,2.785,8.137-0.833,11.611
				c-16.912,16.255-23.144,36.035-17.552,58.708c5.499,22.293,20.001,36.838,42.056,43.36c5.258,1.554,10.938,2.326,16.428,2.344
				c52.515,0.172,105.03,0.173,157.546,0.077c33.864-0.062,60.963-27.613,60.308-61.396c-0.313-16.169-6.394-30.104-17.82-41.646
				c-2.816-2.845-3.437-6.394-1.799-9.533c1.624-3.112,4.935-4.804,8.518-3.989c1.396,0.317,2.88,1.129,3.891,2.146
				c16.475,16.558,24.343,36.52,22.379,59.839c-3.019,35.832-27.891,62.854-63.389,69.355c-3.836,0.703-7.813,0.9-11.723,0.912
				C252.654,354.797,226.125,354.761,199.595,354.761z"/>
		</g>
	</g>
	<g id="Layer_13">
		<path display="inline" d="M200.478,110.987c48.284,0,96.567-0.003,144.851,0.001c9.517,0.001,9.946,0.439,9.946,10.148
			c0.005,51.795,0.005,103.591-0.002,155.386c-0.002,10.41-2.011,12.488-12.033,12.488c-95.688,0.004-191.378,0.004-287.068,0
			c-10.193,0-11.448-1.24-11.448-11.195c-0.002-52.233-0.007-104.468,0.002-156.703c0.002-9.164,0.976-10.12,10.241-10.122
			C103.471,110.982,151.974,110.987,200.478,110.987z M79.676,126.097c1.75,1.394,2.504,2.085,3.344,2.65
			c37.66,25.323,75.372,50.571,112.926,76.05c3.529,2.393,5.674,1.518,8.631-0.479c36.894-24.892,73.847-49.692,110.776-74.531
			c1.361-0.916,2.633-1.967,4.923-3.69C239.721,126.097,160.415,126.097,79.676,126.097z M79.682,272.831
			c80.604,0,159.974,0,239.915,0c-0.843-0.981-1.152-1.554-1.634-1.874c-29.695-19.866-59.369-39.766-89.206-59.419
			c-1.584-1.045-5.01-0.853-6.746,0.175c-5.458,3.227-10.584,7.032-15.71,10.79c-4.306,3.153-8.36,3.104-12.678,0.028
			c-4.817-3.436-10.049-6.331-14.622-10.053c-3.856-3.138-6.639-2.34-10.373,0.19c-27.58,18.69-55.3,37.177-82.964,55.745
			C83.937,269.574,82.309,270.884,79.682,272.831z M60.867,132.742c0,44.934,0,88.781,0,133.49
			c33.132-22.404,65.499-44.293,98.707-66.75C126.356,177.023,93.986,155.136,60.867,132.742z M240.311,199.493
			c33.477,22.62,65.859,44.501,98.832,66.78c0-44.907,0-88.762,0-133.589C306.016,155.077,273.639,176.965,240.311,199.493z"/>
	</g>
	<g id="Layer_15">
		<g display="inline">
			<polygon fill="#EED8E9" points="300.297,288.82 293.395,275.613 280.486,267.811 244.768,254.604 233.361,244.695 
				235.464,232.091 251.973,229.089 269.382,216.482 266.682,208.078 266.682,193.07 266.682,176.861 262.479,157.951 
				262.479,148.646 260.676,135.139 258.876,123.433 257.074,117.43 254.674,110.226 249.57,105.124 243.868,100.021 
				237.564,98.219 231.262,97.919 228.859,95.518 222.855,93.717 218.954,89.815 208.148,89.815 200,90.872 200,345.673 
				210.55,347.65 263.078,334.443 292.193,319.137 307.802,300.227 			"/>
			<path fill="#DCB2D3" d="M345.799,139.149c-25.384-55.218-68.449-86.495-129.125-92.652c-5.594-0.568-11.154-0.799-16.674-0.729
				v12.09c24.164-0.874,47.461,4.555,69.708,16.085c27.783,14.398,48.628,35.927,62.189,64.155
				c26.648,55.468,12.995,117.787-21.667,155.001c-2.41-4.51-4.479-9.388-7.416-13.668c-5.939-8.65-14.551-14.216-23.91-18.504
				c-9.076-4.158-18.428-7.713-27.538-11.797c-3.341-1.498-6.486-3.551-9.442-5.73c-1.841-1.357-3.158-3.426-5.07-5.576
				c6.17-1.24,11.709-1.936,16.979-3.529c5.589-1.691,11.081-3.92,16.288-6.559c2.188-1.11,3.93-3.664,5.17-5.944
				c1.313-2.415,1.125-5.048-0.854-7.521c-3.668-4.584-3.654-10.314-3.84-15.745c-0.445-13.092-0.392-26.201-0.701-39.3
				c-0.321-13.611-1.174-27.187-5.352-40.278c-2.884-9.036-7.409-17.037-15.451-22.585c-5.677-3.917-12.031-5.668-18.857-6.075
				c-1.409-0.083-2.902-0.549-4.15-1.222c-5.197-2.798-10.736-4.608-16.59-4.619c-3.221-0.006-6.387,0.186-9.493,0.57v10.589
				c4.926-0.623,10.065-0.442,15.424,0.642c2,0.405,4.048,1.3,5.706,2.483c2.405,1.716,4.86,2.364,7.787,2.349
				c10.555-0.052,18.043,4.963,22.713,14.323c4.739,9.501,6.314,19.805,6.825,30.197c0.671,13.678,0.496,27.396,1.048,41.083
				c0.333,8.262,1.214,16.513,2.15,24.735c0.285,2.502,1.574,4.89,2.541,7.737c-11.596,6.486-24.805,6.923-37.545,8.923
				c-1.803,12.149,2.426,21.172,13.666,27.167c7.818,4.167,16.105,7.479,24.275,10.958c8.94,3.808,17.984,7.461,25.03,14.415
				c2.804,2.766,5.162,6.079,7.261,9.434c1.773,2.833,2.787,6.133,4.318,9.135c0.92,1.803,0.447,3.039-1.008,4.108
				c-7.81,5.743-15.348,11.916-23.506,17.108c-14.526,9.244-30.476,15.363-47.434,18.285c-9.876,1.701-19.636,2.442-29.255,2.201
				v12.987c1.877,0.019,3.756-0.006,5.634-0.071c8.044-0.604,16.137-0.848,24.113-1.94c5.382-0.739,10.629-2.583,15.89-4.097
				c27.481-7.899,51.302-21.931,70.838-42.903c24.481-26.283,38.325-57.322,41.247-93.192
				C359.774,186.496,356.326,162.052,345.799,139.149z"/>
		</g>
	</g>
	<g id="Layer_17">
		<g display="inline">
			<polygon fill="#D1E5F5" points="204.572,94.673 185.831,94.673 171.459,98.265 162.676,105.452 155.89,111.041 151.897,120.622 
				150.3,138.587 150.3,157.75 152.695,172.122 147.107,185.696 148.304,195.676 153.494,205.656 158.685,214.439 162.277,222.824 
				167.467,230.809 171.459,239.592 171.459,251.967 171.459,263.943 168.266,270.73 157.487,281.908 137.126,288.695 
				127.146,293.887 117.563,298.676 104.789,304.666 102.793,309.855 111.975,315.045 137.126,333.807 150.3,340.594 
				179.444,349.377 204.572,349.377 			"/>
			<path fill="#91BCE4" d="M204.572,340.997c-6.64,0.028-13.343-0.112-20.031-0.978c-25.469-3.295-48.219-13.023-68.354-28.92
				c-1.242-0.98-2.41-2.058-4.132-3.533c4.944-2.558,9.404-5.156,14.096-7.232c11.097-4.912,22.415-9.34,33.43-14.424
				c7.897-3.646,14.771-8.824,18.411-17.146c0.928-2.121,1.432-4.578,1.501-6.899c0.239-7.976,0.229-15.959,0.224-23.939
				c0-0.891-0.298-2.129-0.92-2.616c-7.368-5.791-9.993-14.136-12.371-22.619c-0.321-1.146-0.482-2.344-0.615-3.527
				c-0.364-3.273-0.853-6.373-5.281-6.229c-0.522,0.02-1.136-0.375-1.581-0.734c-4.765-3.853-5.181-15.304-0.513-19.023
				c1.763-1.404,1.685-2.745,1.368-4.601c-1.735-10.188-4.018-20.339-4.867-30.606c-0.973-11.759,0.638-23.338,7.918-33.309
				c6.458-8.844,15.728-12.872,26.13-14.699c5.18-0.91,10.371-4.903,15.552-4.771V84.625c-6.912,0.125-12.441,2.318-18.439,3.899
				c-8.631,2.275-16.928,4.431-24.782,10.12c-10.054,7.282-15.174,17.985-17.504,30.014c-2.029,10.481-1.839,21.025-0.325,31.542
				c0.738,5.116,1.852,10.177,2.728,15.274c0.138,0.81,0.236,1.904-0.18,2.489c-4.535,6.387-4.01,13.316-2.326,20.373
				c1.448,6.063,3.954,11.465,9.402,15.086c0.696,0.463,1.082,1.607,1.317,2.514c2.379,9.162,6.022,17.691,12.085,25.092
				c0.626,0.763,0.988,1.982,0.98,2.986c-0.049,5.982,0.036,11.992-0.533,17.937c-0.205,2.139-1.612,4.754-3.311,6.045
				c-4.398,3.346-9.012,6.619-13.997,8.938c-11.001,5.114-22.356,9.467-33.419,14.461c-4.69,2.114-9.01,5.057-13.53,7.643
				c-48.849-47.504-57.844-133.884-4.229-193.192c28.282-31.285,67.244-48.424,106.063-48.075l0.035-11.989
				c-6.588-0.023-13.487,0.667-20.38,1.472c-29.787,3.478-56.315,15.947-79.181,35.27C72.243,110.209,53.849,145.55,50.24,188.418
				c-2.105,25.006,2.055,49.004,11.695,72.123c23.151,55.518,82.847,95.402,142.068,93.346c0.188-0.015,0.38-0.027,0.569-0.041
				V340.997L204.572,340.997z"/>
		</g>
	</g>
	<g id="Layer_18">
		<path display="inline" d="M201.1,353.717c-60,2.109-119.729-38.693-142.771-93.931C48.6,236.463,44.041,212.24,46.593,187.06
			c6.148-60.663,37.35-103.799,92.541-129.281c23.038-10.637,47.651-14.555,72.935-12.008c60.421,6.086,103.48,37.126,129.065,91.97
			c10.813,23.177,14.398,47.949,12.327,73.497c-2.923,36.055-16.854,67.234-41.506,93.613
			c-19.539,20.908-43.331,34.912-70.771,42.806c-5.271,1.516-10.527,3.366-15.922,4.108
			C217.27,352.864,209.159,353.107,201.1,353.717z M207.404,57.18c-85.783,0.072-149.105,63.967-148.982,142.034
			c0.125,79.75,64.222,139.565,136.647,141.82c84.979,2.644,145.117-64.503,147.412-136.509c1.22-38.228-10.861-72.06-36.68-100.421
			C277.7,73.231,242.342,57.949,207.404,57.18z"/>
	</g>
	<g id="Layer_19">
		<text transform="matrix(1 0 0 1 102.9326 239.2139)" display="inline" font-family="'Lato-Regular'" font-size="134.9919">NA</text>
	</g>
	<g id="Layer_20" display="inline">
		<g>
			<path d="M349.619,289.82c-0.68,2.271-1.256,4.578-2.062,6.805c-4.852,13.407-19.709,27.089-38.524,27.014
				c-74.949-0.299-149.902-0.332-224.852,0.021c-19.616,0.091-37.521-16.126-40.177-34.112c-0.245-1.661-0.211-3.373-0.212-5.063
				c-0.01-46.186-0.011-92.371-0.007-138.555c0.002-20.595,18.18-38.981,38.791-39.124c13.537-0.094,27.074-0.064,40.61,0.027
				c2.138,0.014,3.426-0.659,4.6-2.453c6.318-9.649,12.855-19.158,19.123-28.84c3.104-4.794,7.223-7.035,12.92-7.017
				c24.585,0.077,49.172,0.085,73.756-0.006c5.854-0.022,9.99,2.42,13.125,7.25c6.334,9.757,12.774,19.445,19.345,29.046
				c0.717,1.048,2.545,1.875,3.862,1.889c13.14,0.139,26.289,0.413,39.414,0.009c20.486-0.63,37.141,17.023,39.734,32.41
				c0.077,0.471,0.364,0.909,0.555,1.362C349.619,190.261,349.619,240.04,349.619,289.82z M196.558,297.939
				c37.323,0,74.646,0.002,111.97-0.012c1.889-0.001,3.782-0.066,5.662-0.242c6.008-0.562,9.372-4.033,9.762-10.028
				c0.09-1.39,0.061-2.787,0.061-4.181c0.002-45.483,0.004-90.97,0.002-136.454c-0.002-11.602-3.049-14.651-14.688-14.659
				c-15.924-0.01-31.85-0.048-47.773,0.021c-5.451,0.024-9.482-2.13-12.477-6.71c-6.365-9.738-12.932-19.343-19.305-29.075
				c-1.166-1.782-2.41-2.523-4.572-2.515c-19.008,0.079-38.019,0.08-57.029-0.001c-2.173-0.009-3.398,0.763-4.56,2.535
				c-6.376,9.73-12.942,19.336-19.306,29.073c-2.996,4.584-7.038,6.758-12.485,6.691c-7.264-0.091-14.531-0.043-21.796-0.017
				c-10.05,0.037-20.108-0.115-30.147,0.243c-7.014,0.25-10.448,4.104-10.455,11.151c-0.047,47.575-0.046,95.149-0.003,142.725
				c0.007,7.074,3.435,10.647,10.403,11.264c1.682,0.148,3.378,0.182,5.067,0.184C122.11,297.941,159.334,297.939,196.558,297.939z"
				/>
			<path d="M196.587,145.023c33.333-0.104,63.831,30.184,63.938,63.499c0.106,33.254-30.131,63.895-63.125,63.963
				c-33.988,0.074-64.424-29.85-64.535-63.446C132.754,175.543,163.032,145.127,196.587,145.023z M196.781,170.613
				c-22.696-0.078-38.178,15.213-38.325,37.855c-0.148,22.73,15.149,38.318,37.706,38.421c23.203,0.104,38.713-15.074,38.775-37.951
				C234.998,186.104,219.654,170.692,196.781,170.613z"/>
		</g>
	</g>
</g>
<g id="Layer_2_1_">
	<path fill-rule="evenodd" clip-rule="evenodd" d="M199.85,355.067C116.077,354.69,48.3,288.002,48.186,203.602
		c-0.113-83.727,66.862-151.523,151.356-151.667c83.465-0.144,151.519,66.631,151.662,151.358
		C351.346,286.991,284.333,354.444,199.85,355.067z M200.029,303.498c23.923,0,47.846,0.021,71.768-0.028
		c2.87-0.006,5.767-0.221,8.604-0.643c10.923-1.62,17.762-7.942,19.132-17.705c0.324-2.31,0.212-4.688,0.212-7.034
		c0.012-35.886-0.055-71.77,0.038-107.653c0.037-14.304,0.612-28.605,0.583-42.908c-0.028-12.654-7.477-21.315-19.797-23.332
		c-4.083-0.668-8.291-0.764-12.442-0.777c-22.855-0.07-45.71-0.038-68.565-0.033c-24.883,0.005-49.768-0.086-74.651,0.073
		c-12.683,0.081-25.379,5.841-25.347,25.515c0.058,35.772-0.262,71.547-0.653,107.317c-0.181,16.552-0.781,33.093,1.247,49.58
		c0.908,7.392,4.801,12.778,11.805,14.899c5.425,1.641,11.269,2.552,16.94,2.617C152.608,303.667,176.319,303.505,200.029,303.498z"
		/>
	<path fill-rule="evenodd" clip-rule="evenodd" d="M275.899,118.227c6,0,8.127,1.487,8.913,7.535
		c0.628,4.838,0.643,9.778,0.615,14.672c-0.105,19.001-0.434,38-0.496,57.001c-0.09,27.551-0.021,55.103-0.027,82.654
		c0,5.435-1.541,7.689-7.012,8.387c-5.26,0.672-10.628,0.706-15.946,0.682c-11.099-0.049-22.195-0.456-33.293-0.477
		c-35.134-0.068-70.268-0.024-105.401-0.025c-5.658,0-7.828-1.46-8.613-7.13c-0.683-4.936-0.698-9.99-0.67-14.988
		c0.077-13.556,0.461-27.109,0.492-40.663c0.075-32.678,0.129-65.355-0.076-98.032c-0.044-6.957,2.971-8.757,7.827-9.618
		C125.551,117.633,228.067,118.231,275.899,118.227z M254.758,244.317c-0.474,0.367-0.946,0.734-1.42,1.103
		c-0.568-1.035-0.938-2.269-1.737-3.076c-8.94-9.034-17.923-18.028-26.949-26.979c-3.69-3.661-8.017-3.575-11.166,0.056
		c-2.729,3.146-2.51,6.985,0.751,10.267c9.26,9.321,18.568,18.591,27.849,27.892c0.607,0.607,1.134,1.295,2.024,2.321
		c-4.688,0-8.743,0-12.798,0c-4.165,0.001-8.332-0.056-12.497,0.02c-4.554,0.082-7.551,3.046-7.603,7.361
		c-0.047,4.162,2.788,7.33,7.23,7.367c14.525,0.125,29.054,0.136,43.579-0.011c4.458-0.045,7.499-3.194,7.529-7.577
		c0.1-14.525,0.074-29.053,0-43.58c-0.015-2.854-1.363-5.129-4.078-6.386c-5.251-2.431-10.613,0.951-10.689,6.89
		C254.679,228.094,254.758,236.206,254.758,244.317z M153.929,145.921c0.343-0.469,0.686-0.938,1.029-1.407c1.158,0,2.317,0,3.476,0
		c7.044-0.005,14.092,0.093,21.133-0.053c4.516-0.093,7.456-3.312,7.354-7.603c-0.098-4.176-3.025-7.146-7.423-7.165
		c-14.303-0.06-28.606-0.054-42.909,0.016c-4.932,0.023-7.984,3.086-8.01,8.06c-0.073,14.089-0.07,28.179-0.018,42.269
		c0.019,4.952,3.166,8.117,7.657,7.989c4.419-0.125,7.125-3.144,7.148-8.092c0.034-7.365,0.002-14.73,0.022-22.095
		c0.002-0.745,0.166-1.489,0.361-3.135c1.755,1.969,2.897,3.379,4.171,4.658c8.588,8.621,17.173,17.245,25.825,25.801
		c4.084,4.04,9.72,2.995,12.108-2.112c1.389-2.97,0.755-5.729-2.136-8.632c-8.887-8.925-17.789-17.836-26.741-26.697
		C156.164,146.918,154.955,146.513,153.929,145.921z"/>
</g>
</svg>
